HIERARCHY
ROOT Hips
{
	OFFSET 0.000000 0.000000 0.000000
	CHANNELS 6 Xposition Yposition Zposition Zrotation Yrotation Xrotation 
	JOINT LHipJoint
	{
		OFFSET 0.000000 0.000000 0.000000
		CHANNELS 3 Zrotation Yrotation Xrotation
		JOINT LeftUpLeg
		{
			OFFSET 1.363060 -1.794630 0.839290
			CHANNELS 3 Zrotation Yrotation Xrotation
			JOINT LeftLeg
			{
				OFFSET 2.448110 -6.726130 0.000000
				CHANNELS 3 Zrotation Yrotation Xrotation
				JOINT LeftFoot
				{
					OFFSET 2.562200 -7.039590 0.000000
					CHANNELS 3 Zrotation Yrotation Xrotation
					JOINT LeftToeBase
					{
						OFFSET 0.157640 -0.433110 2.322550
						CHANNELS 3 Zrotation Yrotation Xrotation
						End Site
						{
							OFFSET 0.000000 0.000000 0.000000
						}
					}
				}
			}
		}
	}
	JOINT RHipJoint
	{
		OFFSET 0.000000 0.000000 0.000000
		CHANNELS 3 Zrotation Yrotation Xrotation
		JOINT RightUpLeg
		{
			OFFSET -1.305520 -1.794630 0.839290
			CHANNELS 3 Zrotation Yrotation Xrotation
			JOINT RightLeg
			{
				OFFSET -2.542530 -6.985550 0.000000
				CHANNELS 3 Zrotation Yrotation Xrotation
				JOINT RightFoot
				{
					OFFSET -2.568260 -7.056230 0.000000
					CHANNELS 3 Zrotation Yrotation Xrotation
					JOINT RightToeBase
					{
						OFFSET -0.164730 -0.452590 2.363150
						CHANNELS 3 Zrotation Yrotation Xrotation
						End Site
						{
							OFFSET 0.000000 0.000000 0.000000
						}
					}
				}
			}
		}
	}
}
MOTION
Frames: 11
Frame Time: 0.008333
5.172756 17.553373 3.529919 -175.394814 -88.804956 -167.245090 -10.771126 1.336733 -0.036094 -8.811279 4.887043 -14.601214 -2.490906 -0.537706 7.756873 0.100306 -0.191528 -1.430519 0.127200 -0.000000 -39.404700 9.143107 -0.064623 -1.392298 10.921827 -6.093644 -38.423317 1.669016 -2.597458 35.973534 -1.877463 -8.215762 -3.961705 -1.139300 -0.000001 -40.051700
4.967438 17.543941 3.515986 164.232868 -89.697116 -146.830895 -10.704351 1.227746 -0.260537 -8.803075 5.323453 -13.453364 -2.553600 -0.629062 7.197715 -0.005171 -0.933281 -1.201211 0.070699 -0.000000 -40.147700 9.114836 -0.160702 -1.048304 10.558800 -5.587959 -38.865841 1.851464 -2.411632 32.812474 -1.928851 -8.416832 -3.241496 -1.336900 0.000000 -40.438400
4.763105 17.527799 3.499203 -55.659836 -89.517034 73.074450 -10.146880 1.386080 -0.494042 -8.641842 5.794701 -12.311195 -2.646033 -0.652484 6.624701 -0.074218 -1.563957 -1.105399 0.017300 0.000000 -40.936000 9.545639 0.089105 -0.711389 10.301006 -5.007547 -39.114618 1.954162 -2.126826 29.555482 -1.937435 -8.540943 -2.311008 -1.557000 0.000000 -40.874500
4.559245 17.504823 3.479871 -81.976265 -89.560780 99.376169 -9.963280 1.653439 -0.650172 -8.666310 6.271633 -11.183867 -2.719341 -0.610502 6.012566 -0.111335 -2.045322 -1.098326 -0.030000 -0.000001 -41.758300 9.705220 0.469750 -0.461907 9.854305 -4.448201 -39.278860 2.013521 -1.747139 26.325928 -1.884384 -8.484529 -1.238349 -1.779900 0.000000 -41.296700
4.354282 17.477428 3.462558 42.465536 -89.791629 -25.044621 -10.340740 1.936453 -0.502438 -8.640414 5.803233 -10.353609 -2.703972 -0.502663 5.765037 -0.119606 -2.395722 -1.325633 -0.067400 0.000000 -42.576000 9.419638 0.845494 -0.495541 9.550415 -4.967178 -39.449710 2.185163 -1.305651 23.005289 -1.733021 -8.101383 -0.109944 -1.958300 0.000000 -41.637200
4.150287 17.441347 3.438864 49.989879 -89.447354 -32.629105 -10.219848 2.024080 -0.696917 -8.778234 6.071477 -9.070562 -2.768354 -0.521040 5.275002 -0.158638 -2.791804 -1.425670 -0.094200 -0.000000 -43.439400 9.529344 1.020849 -0.260863 8.917617 -4.784600 -39.607010 2.288623 -0.982355 19.685475 -1.615578 -7.754709 1.026668 -2.103600 -0.000000 -42.004600
3.945406 17.399051 3.413963 55.854686 -89.071313 -38.560344 -10.119019 2.104588 -0.882314 -8.941494 6.281942 -7.771856 -2.828128 -0.540540 4.819279 -0.189635 -3.121540 -1.585254 -0.112100 0.000000 -44.324800 9.630579 1.191655 -0.041707 8.262216 -4.706035 -39.764181 2.393867 -0.653672 16.373287 -1.453570 -7.208196 2.152292 -2.179000 -0.000000 -42.409700
3.739457 17.351126 3.388229 60.561004 -88.678754 -43.338207 -10.028873 2.183337 -1.056088 -9.120157 6.438649 -6.465722 -2.883083 -0.559759 4.394339 -0.213180 -3.387468 -1.789955 -0.121800 0.000000 -45.231400 9.728713 1.364070 0.163258 7.606434 -4.715690 -39.927043 2.502695 -0.321218 13.083774 -1.247386 -6.451313 3.246201 -2.168800 0.000000 -42.937800
3.531917 17.298111 3.362009 64.382037 -88.279165 -47.224081 -9.945741 2.262183 -1.216399 -9.305941 6.551317 -5.179023 -2.933996 -0.577157 4.016071 -0.231233 -3.607447 -2.029305 -0.125600 0.000000 -46.159700 9.823575 1.540617 0.358153 6.967581 -4.794292 -40.110148 2.615970 0.013385 9.829988 -1.002376 -5.493029 4.294740 -2.066100 0.000000 -43.667500
3.322688 17.240746 3.335500 67.582119 -87.877125 -50.484123 -9.866507 2.341949 -1.362789 -9.495495 6.619581 -3.912162 -2.980489 -0.591487 3.686641 -0.244717 -3.786540 -2.284379 -0.124800 -0.000001 -47.104800 9.914078 1.723797 0.541761 6.354069 -4.930652 -40.310874 2.731563 0.347101 6.630606 -0.726775 -4.352455 5.287408 -1.869600 0.000000 -44.662100
3.111779 17.179690 3.308776 70.305919 -87.475966 -53.266566 -9.789491 2.422968 -1.496125 -9.685810 6.645718 -2.668589 -3.022525 -0.600687 3.416083 -0.254796 -3.933726 -2.538896 -0.121201 -0.000000 -48.059600 9.997791 1.916265 0.710917 5.773910 -5.116597 -40.529036 2.845916 0.675574 3.517979 -0.431763 -3.060062 6.207977 -1.585001 -0.000000 -45.941600
